<?xml version="1.0" encoding="UTF-8"?>
<svg version="1.1" xmlns="http://www.w3.org/2000/svg" width="324" height="323">
<path d="M0 0 C0.55719727 0.39493652 1.11439453 0.78987305 1.68847656 1.19677734 C17.47608765 12.57568666 31.41146739 26.66008232 42 43 C42.42861328 43.65935547 42.85722656 44.31871094 43.29882812 44.99804688 C53.61616134 61.12752906 60.66212392 78.37487507 65 97 C65.16371094 97.65597168 65.32742188 98.31194336 65.49609375 98.98779297 C74.38963039 135.6001313 66.84889147 176.42060448 49 209 C48.34360509 210.23690227 47.68735399 211.47388088 47.03125 212.7109375 C42.80310843 220.53362984 37.88629303 227.34419158 32 234 C31.20980469 234.89976562 30.41960937 235.79953125 29.60546875 236.7265625 C6.30689641 262.92296722 -22.52703794 281.47267601 -57 289 C-58.24265625 289.29777344 -59.4853125 289.59554688 -60.765625 289.90234375 C-81.54681929 294.41449943 -106.36599926 293.96619508 -127 289 C-127.82290527 288.80664062 -128.64581055 288.61328125 -129.49365234 288.4140625 C-149.25341006 283.62650483 -167.27864696 275.54613078 -184 264 C-185.0828125 263.25492187 -186.165625 262.50984375 -187.28125 261.7421875 C-221.81797082 236.52354234 -243.80570969 198.89245102 -251 157 C-253.72711113 137.80989766 -253.77640874 115.83306817 -249 97 C-248.80664062 96.1941748 -248.61328125 95.38834961 -248.4140625 94.55810547 C-242.08176886 68.60840523 -230.04332288 46.41242849 -213 26 C-212.27683594 25.13375 -211.55367187 24.2675 -210.80859375 23.375 C-159.15685055 -36.46420152 -63.45805114 -45.12531745 0 0 Z " fill="#010101" transform="translate(254,30)"/>
<path d="M0 0 C3.20913174 2.79216798 5.83004664 6.02919472 6.203125 10.35546875 C6.30309588 16.39537591 6.10416689 20.75502835 3 26 C-2.47942337 31.63162958 -8.38214194 32.12699329 -15.875 32.3125 C-23.07702726 32.1899123 -29.24694427 31.75305573 -34.5 26.5 C-38.10259843 20.49566928 -37.53935238 13.79271327 -37 7 C-35.0481803 2.28310239 -32.19141638 -0.25642801 -27.59765625 -2.30859375 C-19.01543743 -4.59288357 -7.98336611 -4.16857845 0 0 Z " fill="#E2E0DD" transform="translate(235,144)"/>
<path d="M0 0 C5.6050325 -0.07427668 11.20977711 -0.12866208 16.81518555 -0.16479492 C18.72116081 -0.17986128 20.62710152 -0.20031824 22.53295898 -0.22631836 C25.27596576 -0.26279642 28.01851328 -0.27974792 30.76171875 -0.29296875 C32.03543587 -0.31619453 32.03543587 -0.31619453 33.33488464 -0.33988953 C38.04713885 -0.34122348 41.18305283 -0.08932841 45 3 C46.73325459 6.46650917 46.60453191 10.21831706 46 14 C43.75 16.5625 43.75 16.5625 41 18 C39.68 18 38.36 18 37 18 C37 18.66 37 19.32 37 20 C37.99 20 38.98 20 40 20 C40.37125 21.134375 40.7425 22.26875 41.125 23.4375 C41.86637873 25.3814131 41.86637873 25.3814131 43 27 C46.08369887 28.05749557 46.08369887 28.05749557 49 28 C49 29.65 49 31.3 49 33 C44.28637439 33.34028848 39.70417215 33.52329146 35 33 C32.3125 30.375 32.3125 30.375 31 27 C30.443125 25.906875 29.88625 24.81375 29.3125 23.6875 C28.879375 22.800625 28.44625 21.91375 28 21 C26.26043342 19.26043342 23.8063378 19.62809614 21.4375 19.4375 C20.42558594 19.35371094 19.41367188 19.26992187 18.37109375 19.18359375 C17.19740234 19.09271484 17.19740234 19.09271484 16 19 C16 21.97 16 24.94 16 28 C18.31 28 20.62 28 23 28 C23 29.65 23 31.3 23 33 C15.41 33 7.82 33 0 33 C0 31.35 0 29.7 0 28 C1.98 28 3.96 28 6 28 C6 20.41 6 12.82 6 5 C4.02 5 2.04 5 0 5 C0 3.35 0 1.7 0 0 Z " fill="#E3E1DE" transform="translate(80,142)"/>
<path d="M0 0 C0.33 -0.66 0.66 -1.32 1 -2 C4.3 -2 7.6 -2 11 -2 C11 0.64 11 3.28 11 6 C0.39025025 6.51801671 0.39025025 6.51801671 -3.75 4.5 C-8.11033509 2.48753765 -11.75458917 2.21107187 -16.3125 3.8125 C-18.30067478 5.05967992 -18.30067478 5.05967992 -20 8 C-20.31855376 11.06612399 -20.31855376 11.06612399 -20.25 14.4375 C-20.25515625 15.57058594 -20.2603125 16.70367187 -20.265625 17.87109375 C-20.01176202 20.86145033 -19.62261249 22.51664684 -18 25 C-14.56297069 27.54594764 -11.14953888 27.36399464 -7 27 C-4.12694028 25.59539303 -2.25489001 24.25489001 0 22 C0.64767793 19.42938689 0.64767793 19.42938689 1 17 C-0.65 17 -2.3 17 -4 17 C-4 15.68 -4 14.36 -4 13 C3.26 13 10.52 13 18 13 C18 14.32 18 15.64 18 17 C16.02 17 14.04 17 12 17 C12 21.95 12 26.9 12 32 C8.7 32 5.4 32 2 32 C2 30.68 2 29.36 2 28 C0.9275 28.639375 -0.145 29.27875 -1.25 29.9375 C-3.9836145 31.5671548 -5.78183646 32.19545912 -9 33 C-4.545 32.505 -4.545 32.505 0 32 C-1 36 -1 36 -2.73046875 37.2265625 C-7.63810134 38.89904314 -13.43131535 39.01511593 -18.2734375 37.1015625 C-20.1875 36 -20.1875 36 -23 34 C-23 33.34 -23 32.68 -23 32 C-23.9075 31.443125 -24.815 30.88625 -25.75 30.3125 C-29.47951054 27.65880981 -31.66113624 25.34754635 -33 21 C-33.72243316 15.08784292 -33.87052765 9.90846446 -31.375 4.4375 C-22.48021668 -4.69135657 -11.21347317 -5.17544916 0 0 Z " fill="#E0DEDB" transform="translate(171,144)"/>
<path d="M0 0 C16.17 0 32.34 0 49 0 C49 5.94 49 11.88 49 18 C45.7 18 42.4 18 39 18 C39 14.04 39 10.08 39 6 C36.03 6 33.06 6 30 6 C30 13.26 30 20.52 30 28 C32.31 28 34.62 28 37 28 C37 29.98 37 31.96 37 34 C28.75 34 20.5 34 12 34 C12 32.02 12 30.04 12 28 C14.31 28 16.62 28 19 28 C19 20.74 19 13.48 19 6 C16.03 6 13.06 6 10 6 C10 9.96 10 13.92 10 18 C6.7 18 3.4 18 0 18 C0 12.06 0 6.12 0 0 Z " fill="#D6D4D2" transform="translate(250,142)"/>
<path d="M0 0 C5.61 0 11.22 0 17 0 C29 25.36893204 29 25.36893204 29 28 C30.98 28 32.96 28 35 28 C35 29.65 35 31.3 35 33 C27.74 33 20.48 33 13 33 C13 31.35 13 29.7 13 28 C14.65 28 16.3 28 18 28 C17.505 27.1028125 17.505 27.1028125 17 26.1875 C16 24 16 24 16 21 C10.72 21 5.44 21 0 21 C-0.66 23.31 -1.32 25.62 -2 28 C-0.02 28 1.96 28 4 28 C4 29.98 4 31.96 4 34 C-3.26 34 -10.52 34 -18 34 C-18 32.02 -18 30.04 -18 28 C-15.69 28 -13.38 28 -11 28 C-10.74802856 27.20057983 -10.74802856 27.20057983 -10.4909668 26.38500977 C-8.56540752 20.42783089 -6.27988634 14.68878571 -3.8125 8.9375 C-3.44447266 8.07189453 -3.07644531 7.20628906 -2.69726562 6.31445312 C-1.80128273 4.20831152 -0.90108689 2.10396298 0 0 Z " fill="#E0DEDB" transform="translate(36,142)"/>
<path d="M0 0 C1.32 0.66 2.64 1.32 4 2 C3.98839844 2.69867188 3.97679687 3.39734375 3.96484375 4.1171875 C3.95582031 5.02726563 3.94679687 5.93734375 3.9375 6.875 C3.92589844 7.77992188 3.91429687 8.68484375 3.90234375 9.6171875 C3.83750743 12.0168585 3.83750743 12.0168585 5 14 C-2.26 14 -9.52 14 -17 14 C-17 15.32 -17 16.64 -17 18 C-15.35 18 -13.7 18 -12 18 C-11.6875 20.1875 -11.6875 20.1875 -12 23 C-14.56120426 26.04575642 -16.20519658 27.73506553 -20 29 C-24.97725826 29.3686858 -28.04429615 29.16456308 -32 26 C-35.2649492 20.97611689 -34.73405175 14.73432504 -34 9 C-32.33331433 5.94544225 -30.10217397 4.55108699 -27 3 C-22.25992956 2.62822977 -19.28307437 3.20269837 -15.03515625 5.2734375 C-11.57610658 6.50833815 -8.00025726 6.52550553 -4.35546875 6.69140625 C-2 7 -2 7 0 9 C0 6.03 0 3.06 0 0 Z " fill="#161615" transform="translate(184,143)"/>
<path d="M0 0 C3.4203866 1.17013226 3.91540482 1.87310723 6 5 C6.265625 8.21484375 6.265625 8.21484375 6.25 11.9375 C6.25515625 13.16339844 6.2603125 14.38929688 6.265625 15.65234375 C6.01906115 18.7597734 5.69850168 20.44002804 4 23 C1.00381744 25.30475582 -2.30904601 25.47091976 -6.03125 25.39453125 C-9.38693026 24.72206358 -10.95936396 22.59717314 -13 20 C-14.96010221 16.07979559 -14.3528633 11.28388424 -14 7 C-11.14495874 0.33823707 -6.86022487 -0.67909297 0 0 Z " fill="#050505" transform="translate(223,146)"/>
<path d="M0 0 C4.22141034 1.50764655 5.80349864 4.21292869 8 8 C9.78241285 13.79284178 9.91394501 19.68749807 7.375 25.25 C3.9218971 31.30195386 -0.9266656 34.56647448 -7.51171875 36.4921875 C-15.9279877 38.20979341 -22.51920344 37.13752699 -30 33 C-26.97856705 31.99285568 -24.65369489 31.97544529 -21.50292969 32.06567383 C-11.39383775 32.38236503 -11.39383775 32.38236503 -2 29 C1.69296656 25.40172489 3.72449693 21.45805984 4.30078125 16.31640625 C4.32447076 10.74937069 4.09569674 6.82928691 1 2 C0.67 1.34 0.34 0.68 0 0 Z " fill="#D6D4D1" transform="translate(238,145)"/>
<path d="M0 0 C2.41734542 -0.08117951 4.83194949 -0.14056926 7.25 -0.1875 C7.93191406 -0.21263672 8.61382812 -0.23777344 9.31640625 -0.26367188 C12.48244303 -0.30977921 14.65727283 -0.18852718 17.45703125 1.3515625 C19 3 19 3 19.4375 5.5625 C19.293125 6.366875 19.14875 7.17125 19 8 C15.20836973 10.52775351 12.19125969 10.22443035 7.8125 10.125 C7.06291016 10.11597656 6.31332031 10.10695312 5.54101562 10.09765625 C3.69387346 10.07412578 1.84689588 10.03825561 0 10 C0 6.7 0 3.4 0 0 Z " fill="#272626" transform="translate(96,147)"/>
<path d="M0 0 C0.99 0.66 1.98 1.32 3 2 C3.29296875 4.1640625 3.29296875 4.1640625 3.1875 6.625 C3.14689453 7.85089844 3.14689453 7.85089844 3.10546875 9.1015625 C3.07066406 9.72804687 3.03585938 10.35453125 3 11 C0.56242587 11.02698422 -1.87484915 11.04683099 -4.3125 11.0625 C-5.00279297 11.07087891 -5.69308594 11.07925781 -6.40429688 11.08789062 C-9.5483025 11.10307906 -11.99420019 11.00193327 -15 10 C-16.87313664 9.90661782 -18.74954362 9.87005157 -20.625 9.875 C-21.60726562 9.87242187 -22.58953125 9.86984375 -23.6015625 9.8671875 C-25.95225011 9.72994035 -25.95225011 9.72994035 -27 11 C-27.07313567 13.53049402 -27.09247527 16.03304837 -27.0625 18.5625 C-27.05798828 19.27341797 -27.05347656 19.98433594 -27.04882812 20.71679688 C-27.03700864 22.47790013 -27.01907263 24.23896036 -27 26 C-30.875 24.25 -30.875 24.25 -32 22 C-32.17431846 19.87960174 -32.26709071 17.75206692 -32.3125 15.625 C-32.34988281 14.48289063 -32.38726562 13.34078125 -32.42578125 12.1640625 C-32 9 -32 9 -30.21875 6.61328125 C-27.49616217 4.63365313 -25.37896529 4.50576356 -22.0546875 4.6640625 C-19.51653586 5.07904547 -17.43202964 6.13063018 -15.140625 7.265625 C-10.34003437 8.91254295 -5.03496904 8.78042992 0 9 C0 6.03 0 3.06 0 0 Z " fill="#D0CECC" transform="translate(184,143)"/>
<path d="M0 0 C1.32 0.66 2.64 1.32 4 2 C4 4.31 4 6.62 4 9 C2.02 9 0.04 9 -2 9 C-2 13.95 -2 18.9 -2 24 C-12.33846154 24.49230769 -12.33846154 24.49230769 -15.6875 22 C-16.120625 21.34 -16.55375 20.68 -17 20 C-13.37 20 -9.74 20 -6 20 C-6 15.05 -6 10.1 -6 5 C-4.02 5 -2.04 5 0 5 C0 3.35 0 1.7 0 0 Z " fill="#D0CFCC" transform="translate(190,157)"/>
<path d="M0 0 C1.32 0.66 2.64 1.32 4 2 C4 4.97 4 7.94 4 11 C-0.0830942 11.11614929 -4.16576377 11.18723457 -8.25 11.25 C-9.40886719 11.28351563 -10.56773438 11.31703125 -11.76171875 11.3515625 C-12.87675781 11.36445313 -13.99179688 11.37734375 -15.140625 11.390625 C-16.16704102 11.41157227 -17.19345703 11.43251953 -18.25097656 11.45410156 C-21 11 -21 11 -25 7 C-16.75 7 -8.5 7 0 7 C0 4.69 0 2.38 0 0 Z " fill="#D7D5D2" transform="translate(105,170)"/>
<path d="M0 0 C2 1 2 1 4 3 C4.26991906 5.68839385 4.08737357 8.29141936 4 11 C-0.0830942 11.11614929 -4.16576377 11.18723457 -8.25 11.25 C-9.40886719 11.28351563 -10.56773437 11.31703125 -11.76171875 11.3515625 C-12.87675781 11.36445313 -13.99179687 11.37734375 -15.140625 11.390625 C-16.16704102 11.41157227 -17.19345703 11.43251953 -18.25097656 11.45410156 C-21 11 -21 11 -25 7 C-16.75 7 -8.5 7 0 7 C0 4.69 0 2.38 0 0 Z " fill="#D6D4D2" transform="translate(288,170)"/>
<path d="M0 0 C2 1 2 1 4 3 C4.26991906 5.68839385 4.08737357 8.29141936 4 11 C0.08358289 11.11618764 -3.83239101 11.18724654 -7.75 11.25 C-9.41675781 11.30027344 -9.41675781 11.30027344 -11.1171875 11.3515625 C-12.18710937 11.36445313 -13.25703125 11.37734375 -14.359375 11.390625 C-15.83615723 11.4220459 -15.83615723 11.4220459 -17.34277344 11.45410156 C-20 11 -20 11 -24 7 C-16.08 7 -8.16 7 0 7 C0 4.69 0 2.38 0 0 Z " fill="#D7D6D3" transform="translate(73,170)"/>
<path d="M0 0 C1.32 0.66 2.64 1.32 4 2 C4 4.97 4 7.94 4 11 C0.60368528 11.08107913 -2.79068616 11.14053944 -6.1875 11.1875 C-7.62706055 11.22520508 -7.62706055 11.22520508 -9.09570312 11.26367188 C-18.05151061 11.35663873 -18.05151061 11.35663873 -22 8 C-22 7.67 -22 7.34 -22 7 C-14.74 7 -7.48 7 0 7 C0 4.69 0 2.38 0 0 Z " fill="#D5D3D0" transform="translate(41,170)"/>
<path d="M0 0 C3 1 3 1 4.1640625 3.23046875 C5.9850705 9.26362142 5.98073523 15.66892668 3.3125 21.4375 C0.67780586 25.94227425 -2.18449362 28.37388593 -7.16015625 30.08984375 C-11.29309075 31.06947116 -14.90809623 31.2632289 -19.125 31.1875 C-19.81464844 31.18685547 -20.50429687 31.18621094 -21.21484375 31.18554688 C-24.92743505 31.15360297 -28.39033053 30.87783791 -32 30 C-28.18740935 27.4582729 -25.26242352 27.89892033 -20.875 28.0625 C-11.58860104 28.23993806 -11.58860104 28.23993806 -3 25 C0.71156282 21.38122625 1.84270335 18.45455929 2.16796875 13.37890625 C2.17441406 12.44949219 2.18085938 11.52007812 2.1875 10.5625 C2.20167969 9.63566406 2.21585938 8.70882812 2.23046875 7.75390625 C1.98507562 4.82166627 1.22201577 2.66138611 0 0 Z " fill="#232222" transform="translate(238,147)"/>
<path d="M0 0 C1.98828125 0.78515625 1.98828125 0.78515625 3.2578125 2.8515625 C3.49886719 3.48964844 3.73992187 4.12773437 3.98828125 4.78515625 C3.27800781 4.77355469 2.56773437 4.76195312 1.8359375 4.75 C0.91683594 4.74097656 -0.00226563 4.73195312 -0.94921875 4.72265625 C-2.32400391 4.70525391 -2.32400391 4.70525391 -3.7265625 4.6875 C-5.97765202 4.52566576 -5.97765202 4.52566576 -7.01171875 5.78515625 C-7.08485442 8.31565027 -7.10419402 10.81820462 -7.07421875 13.34765625 C-7.06970703 14.05857422 -7.06519531 14.76949219 -7.06054688 15.50195312 C-7.04872739 17.26305638 -7.03079138 19.02411661 -7.01171875 20.78515625 C-8.94921875 19.97265625 -8.94921875 19.97265625 -11.01171875 18.78515625 C-12.5597802 14.14097189 -12.61206227 9.63028159 -12.01171875 4.78515625 C-8.8099464 -0.58555865 -5.73508675 -0.68435489 0 0 Z " fill="#DBD9D6" transform="translate(223.01171875,148.21484375)"/>
<path d="M0 0 C2.31 0 4.62 0 7 0 C7 1.32 7 2.64 7 4 C6.01 4 5.02 4 4 4 C4 7.96 4 11.92 4 16 C-4.30078125 16.390625 -4.30078125 16.390625 -7 16 C-7.99 14.68 -8.98 13.36 -10 12 C-6.7 12 -3.4 12 0 12 C0 8.04 0 4.08 0 0 Z " fill="#D4D2CF" transform="translate(261,149)"/>
<path d="M0 0 C0.99 0.66 1.98 1.32 3 2 C3.34057617 4.06298828 3.34057617 4.06298828 3.29296875 6.5703125 C3.28330078 7.46621094 3.27363281 8.36210937 3.26367188 9.28515625 C3.23853516 10.22230469 3.21339844 11.15945312 3.1875 12.125 C3.17396484 13.06988281 3.16042969 14.01476562 3.14648438 14.98828125 C3.11106306 17.32608779 3.06167271 19.66276237 3 22 C1.23050905 22.10815225 -0.54087487 22.18566083 -2.3125 22.25 C-3.29863281 22.29640625 -4.28476562 22.3428125 -5.30078125 22.390625 C-8 22 -8 22 -11 18 C-7.37 18 -3.74 18 0 18 C0 12.06 0 6.12 0 0 Z " fill="#E2E0DD" transform="translate(301,143)"/>
<path d="M0 0 C8.0747728 5.27332101 10.77431092 13.25436274 14 22 C14 22.66 14 23.32 14 24 C12.68 24 11.36 24 10 24 C8.32724698 20.37777789 6.66283749 16.7517834 5 13.125 C4.28457031 11.57619141 4.28457031 11.57619141 3.5546875 9.99609375 C3.10351562 9.00996094 2.65234375 8.02382812 2.1875 7.0078125 C1.76855469 6.09660645 1.34960938 5.18540039 0.91796875 4.24658203 C0 2 0 2 0 0 Z " fill="#D8D6D3" transform="translate(56,144)"/>
<path d="M0 0 C2.31 0 4.62 0 7 0 C7 1.32 7 2.64 7 4 C6.01 4 5.02 4 4 4 C4 8.95 4 13.9 4 19 C2.68 19 1.36 19 0 19 C0 12.73 0 6.46 0 0 Z " fill="#D2D0CE" transform="translate(281,149)"/>
<path d="M0 0 C0.66 0.33 1.32 0.66 2 1 C8.03326169 1.30708218 14.08160618 1.31519863 20 0 C19.75 1.875 19.75 1.875 19 4 C14.4135005 6.96712041 9.25762911 6.63683958 4 6 C1.29895175 4.93257543 -0.61140962 3.69855316 -3 2 C-2.01 1.34 -1.02 0.68 0 0 Z " fill="#D6D4D2" transform="translate(151,176)"/>
<path d="M0 0 C0.99 0.33 1.98 0.66 3 1 C3 3.97 3 6.94 3 10 C0.75106046 10.10823773 -1.49937575 10.18569645 -3.75 10.25 C-5.62945312 10.31960937 -5.62945312 10.31960937 -7.546875 10.390625 C-11 10 -11 10 -15 6 C-10.05 6 -5.1 6 0 6 C0 4.02 0 2.04 0 0 Z " fill="#D8D6D3" transform="translate(131,171)"/>
<path d="M0 0 C2.4375 0.8125 2.4375 0.8125 4 2 C4.33 2.99 4.66 3.98 5 5 C4.01 5.495 4.01 5.495 3 6 C2.67 5.34 2.34 4.68 2 4 C-2.05804312 2.83115188 -5.72890486 2.37995359 -9.5625 4.25 C-11.84836823 8.62296531 -11.61137546 13.16586847 -11 18 C-10.06481651 20.27025439 -10.06481651 20.27025439 -9 22 C-8.01 22 -7.02 22 -6 22 C-6.33 22.99 -6.66 23.98 -7 25 C-10.63777465 23.08538176 -12.52096159 21.85630563 -14 18 C-14.56399028 13.08522758 -14.64891038 8.51412423 -12.6875 3.9375 C-8.94909997 -0.35473707 -5.37153988 -0.53065616 0 0 Z " fill="#2F2E2E" transform="translate(223,146)"/>
<path d="M0 0 C2.70301172 2.19619702 3.88415463 3.40790146 4.5625 6.875 C3.65657961 11.90789108 0.56628625 14.43371375 -3 18 C-2.34 18.33 -1.68 18.66 -1 19 C-1 19.66 -1 20.32 -1 21 C-2.875 20.875 -2.875 20.875 -5 20 C-6.25 16.9375 -6.25 16.9375 -7 14 C-5.7934375 13.319375 -5.7934375 13.319375 -4.5625 12.625 C-1.91143428 11.25274335 -1.91143428 11.25274335 -1 9 C-0.77532169 7.46331135 -0.59203195 5.92031946 -0.4375 4.375 C-0.35371094 3.55773437 -0.26992187 2.74046875 -0.18359375 1.8984375 C-0.12300781 1.27195313 -0.06242187 0.64546875 0 0 Z " fill="#D7D5D2" transform="translate(128,147)"/>
<path d="M0 0 C2.97595467 2.55081829 4.44002566 5.43434437 6 9 C6 9.99 6 10.98 6 12 C2.7 12 -0.6 12 -4 12 C-3.33501617 7.61110675 -1.81242323 4.0188515 0 0 Z " fill="#202020" transform="translate(43,147)"/>
<path d="M0 0 C0.495 0.99 0.495 0.99 1 2 C-0.98 2 -2.96 2 -5 2 C-5 6.95 -5 11.9 -5 17 C-11.435 17.495 -11.435 17.495 -18 18 C-18 17.34 -18 16.68 -18 16 C-18.84820312 16.32742187 -19.69640625 16.65484375 -20.5703125 16.9921875 C-24.20190011 18.05932828 -27.10336301 18.20197218 -30.875 18.125 C-32.02742187 18.10695312 -33.17984375 18.08890625 -34.3671875 18.0703125 C-35.23601562 18.04710937 -36.10484375 18.02390625 -37 18 C-37 17.67 -37 17.34 -37 17 C-36.04738281 16.89042969 -35.09476563 16.78085938 -34.11328125 16.66796875 C-32.85902344 16.50941406 -31.60476562 16.35085937 -30.3125 16.1875 C-29.07113281 16.03667969 -27.82976562 15.88585937 -26.55078125 15.73046875 C-23.04531617 15.00932247 -20.95399523 13.94271758 -18 12 C-17.34 12 -16.68 12 -16 12 C-16 13.32 -16 14.64 -16 16 C-12.7 16 -9.4 16 -6 16 C-6 11.05 -6 6.1 -6 1 C-4.02 0.67 -2.04 0.34 0 0 Z " fill="#101010" transform="translate(189,160)"/>
<path d="M0 0 C2.12493141 -0.02693575 4.24995912 -0.04636628 6.375 -0.0625 C7.55835937 -0.07410156 8.74171875 -0.08570313 9.9609375 -0.09765625 C13 0 13 0 15 1 C15 1.99 15 2.98 15 4 C11.37 4 7.74 4 4 4 C4 4.66 4 5.32 4 6 C2.68 6 1.36 6 0 6 C0 4.02 0 2.04 0 0 Z " fill="#D1CFCD" transform="translate(98,149)"/>
<path d="M0 0 C1.66148181 0.73488618 3.32247226 1.47265817 4.95703125 2.265625 C9.11468643 3.76015497 13.61886138 3.7702477 18 4 C18 4.33 18 4.66 18 5 C10.90945615 6.06422268 6.60478633 6.11546525 0 3 C-3.41496606 2.49761207 -6.75396765 2.11655443 -9.69140625 4.19921875 C-11.40543687 6.55792955 -11.49980176 8.29694703 -11.6875 11.1875 C-11.75324219 12.08855469 -11.81898438 12.98960937 -11.88671875 13.91796875 C-11.92410156 14.60503906 -11.96148437 15.29210937 -12 16 C-12.33 16 -12.66 16 -13 16 C-13.65860048 12.64178963 -14.13624949 9.42719874 -14 6 C-9.84567122 0.49832135 -6.72792804 -0.44117561 0 0 Z " fill="#323131" transform="translate(164,146)"/>
<path d="M0 0 C0.33 0 0.66 0 1 0 C1.29557287 3.38266731 1.43980636 6.6264265 1 10 C-1.5 12.9375 -1.5 12.9375 -4 15 C-4.15811388 18.05270463 -4.15811388 18.05270463 -3 21 C-1.68 21 -0.36 21 1 21 C1 21.66 1 22.32 1 23 C-0.65 23.33 -2.3 23.66 -4 24 C-7 18.25 -7 18.25 -7 16 C-7.99 16 -8.98 16 -10 16 C-10 15.34 -10 14.68 -10 14 C-8.865625 13.525625 -7.73125 13.05125 -6.5625 12.5625 C-3.24259834 11.36377917 -3.24259834 11.36377917 -2 10 C-1.6068352 8.32115762 -1.25914548 6.63149955 -0.9375 4.9375 C-0.76089844 4.01839844 -0.58429688 3.09929687 -0.40234375 2.15234375 C-0.26957031 1.44207031 -0.13679688 0.73179687 0 0 Z " fill="#30302F" transform="translate(127,146)"/>
<path d="M0 0 C0.99 0.66 1.98 1.32 3 2 C3.41137202 5.03866799 3.13193156 7.92159703 3 11 C-1.95 11 -6.9 11 -12 11 C-12.33 10.34 -12.66 9.68 -13 9 C-8.71 9 -4.42 9 0 9 C0 6.03 0 3.06 0 0 Z " fill="#E6E4E1" transform="translate(184,143)"/>
<path d="M0 0 C0.99 0 1.98 0 3 0 C3.30292969 0.79921875 3.60585938 1.5984375 3.91796875 2.421875 C6.8114149 10.00715537 9.83458536 17.52423351 13 25 C12.34 25.33 11.68 25.66 11 26 C9.16055374 22.04447897 7.32948447 18.08513715 5.5 14.125 C4.71302734 12.43310547 4.71302734 12.43310547 3.91015625 10.70703125 C3.16572266 9.09248047 3.16572266 9.09248047 2.40625 7.4453125 C1.94541016 6.45031738 1.48457031 5.45532227 1.00976562 4.43017578 C0 2 0 2 0 0 Z " fill="#252424" transform="translate(53,142)"/>
<path d="M0 0 C0.84755859 0.0515625 1.69511719 0.103125 2.56835938 0.15625 C3.44943359 0.22070312 4.33050781 0.28515625 5.23828125 0.3515625 C6.13095703 0.40828125 7.02363281 0.465 7.94335938 0.5234375 C10.14665538 0.66482548 12.34879664 0.81622228 14.55078125 0.9765625 C14.22078125 1.6365625 13.89078125 2.2965625 13.55078125 2.9765625 C10.98820945 3.00366373 8.4259276 3.02345021 5.86328125 3.0390625 C4.78143555 3.05163086 4.78143555 3.05163086 3.67773438 3.06445312 C-0.16477257 3.08199882 -3.71561401 2.91180471 -7.44921875 1.9765625 C-4.22473728 -0.17309181 -3.6499091 -0.24496034 0 0 Z " fill="#191818" transform="translate(213.44921875,175.0234375)"/>
<path d="M0 0 C4.29 0 8.58 0 13 0 C13.33 0.99 13.66 1.98 14 3 C9.38 3 4.76 3 0 3 C0 2.01 0 1.02 0 0 Z " fill="#DDDBD8" transform="translate(37,165)"/>
<path d="M0 0 C2.64 0 5.28 0 8 0 C8.66 1.32 9.32 2.64 10 4 C6.7 4.33 3.4 4.66 0 5 C0 3.35 0 1.7 0 0 Z " fill="#DBD9D6" transform="translate(98,163)"/>
<path d="M0 0 C5.28 0 10.56 0 16 0 C15.67 0.99 15.34 1.98 15 3 C8.07 2.505 8.07 2.505 1 2 C0.67 2.99 0.34 3.98 0 5 C-0.33 4.01 -0.66 3.02 -1 2 C-0.67 1.34 -0.34 0.68 0 0 Z " fill="#2C2B2B" transform="translate(36,163)"/>
<path d="M0 0 C2.4375 0.8125 2.4375 0.8125 4 2 C4.33 2.99 4.66 3.98 5 5 C4.01 5.495 4.01 5.495 3 6 C2.67 5.34 2.34 4.68 2 4 C0.01499553 3.45460385 0.01499553 3.45460385 -2.3125 3.25 C-3.09238281 3.15203125 -3.87226563 3.0540625 -4.67578125 2.953125 C-7.30133568 3.00607736 -8.76473757 3.67009558 -11 5 C-11 4.01 -11 3.02 -11 2 C-7.28382994 -0.47744671 -4.30291656 -0.42508651 0 0 Z " fill="#1A1A1A" transform="translate(223,146)"/>
<path d="M0 0 C0.66 0.33 1.32 0.66 2 1 C-3.61 6.61 -9.22 12.22 -15 18 C-15.66 17.67 -16.32 17.34 -17 17 C-12.88524836 12.04943944 -8.61923992 7.60171545 -3.69921875 3.4453125 C-1.90381734 1.95747294 -1.90381734 1.95747294 0 0 Z " fill="#494949" transform="translate(59,38)"/>
<path d="M0 0 C1.79093191 -0.08086147 3.58289628 -0.13912702 5.375 -0.1875 C6.87160156 -0.23970703 6.87160156 -0.23970703 8.3984375 -0.29296875 C9.25695312 -0.19628906 10.11546875 -0.09960938 11 0 C11.66 0.99 12.32 1.98 13 3 C10.37165722 3 7.91813299 2.80210238 5.3125 2.5 C4.50425781 2.4071875 3.69601563 2.314375 2.86328125 2.21875 C2.24839844 2.1465625 1.63351563 2.074375 1 2 C1 4.31 1 6.62 1 9 C0.67 9 0.34 9 0 9 C0 6.03 0 3.06 0 0 Z " fill="#222121" transform="translate(96,161)"/>
<path d="M0 0 C0.66 0 1.32 0 2 0 C2.33 1.65 2.66 3.3 3 5 C-0.3 5 -3.6 5 -7 5 C-6.67 3.68 -6.34 2.36 -6 1 C-5.67 1.66 -5.34 2.32 -5 3 C-3.35 3 -1.7 3 0 3 C0 2.01 0 1.02 0 0 Z " fill="#161616" transform="translate(46,154)"/>
<path d="M0 0 C1.32 0 2.64 0 4 0 C4.99 2.31 5.98 4.62 7 7 C8.32 7 9.64 7 11 7 C11 7.66 11 8.32 11 9 C9.35 9.33 7.7 9.66 6 10 C3 4.25 3 4.25 3 2 C2.01 2 1.02 2 0 2 C0 1.34 0 0.68 0 0 Z " fill="#252424" transform="translate(117,160)"/>
<path d="M0 0 C0.66 0.33 1.32 0.66 2 1 C3.53668865 1.22467831 5.07968054 1.40796805 6.625 1.5625 C7.44226563 1.64628906 8.25953125 1.73007813 9.1015625 1.81640625 C9.72804687 1.87699219 10.35453125 1.93757812 11 2 C11 2.33 11 2.66 11 3 C8.36 3 5.72 3 3 3 C2.67 3.66 2.34 4.32 2 5 C0.35 4.01 -1.3 3.02 -3 2 C-2.01 1.34 -1.02 0.68 0 0 Z " fill="#A4A3A1" transform="translate(151,176)"/>
<path d="M0 0 C1.5 1.3125 1.5 1.3125 3 3 C3 3.99 3 4.98 3 6 C1.35 6 -0.3 6 -2 6 C-1.34 4.02 -0.68 2.04 0 0 Z " fill="#C9C7C5" transform="translate(43,151)"/>
<path d="M0 0 C1.1875 1.6875 1.1875 1.6875 2 4 C0.625 6.75 0.625 6.75 -1 9 C-1.99 8.67 -2.98 8.34 -4 8 C-3.2884375 7.13375 -3.2884375 7.13375 -2.5625 6.25 C-1.0515133 4.07417916 -0.45963849 2.57397552 0 0 Z " fill="#2B2B2B" transform="translate(240,163)"/>
<path d="M0 0 C0.99 0 1.98 0 3 0 C3.66 2.31 4.32 4.62 5 7 C4.01 7.495 4.01 7.495 3 8 C0 2.25 0 2.25 0 0 Z " fill="#313130" transform="translate(53,142)"/>
</svg>
